<svg width="66" height="66" viewBox="0 0 66 66" fill="none" xmlns="http://www.w3.org/2000/svg">
<circle cx="33" cy="33" r="33" fill="white"/>
<path d="M41.0552 25.9182C39.7723 25.9181 38.4961 26.1029 37.266 26.4669C38.6393 28.9971 39.1582 31.9033 38.7451 34.7524C38.332 37.6015 37.0091 40.2407 34.9737 42.2767L27.7055 49.5449H37.985C39.7379 49.5449 41.4736 49.1997 43.0931 48.5289C44.7126 47.8581 46.1841 46.8749 47.4236 45.6354C48.6632 44.3959 49.6464 42.9244 50.3172 41.3049C50.988 39.6855 51.3333 37.9497 51.3333 36.1968V25.9182H41.0552Z" fill="#009959"/>
<path d="M20.4375 23.4001L27.7041 16.1335L34.9707 23.4001C37.4736 25.903 38.8797 29.2976 38.8797 32.8372C38.8797 36.3768 37.4736 39.7714 34.9707 42.2743L27.7039 49.5411L20.4373 42.2745C17.9344 39.7716 16.5282 36.3769 16.5282 32.8372C16.5282 29.2976 17.9344 25.9029 20.4373 23.3999L20.4375 23.4001Z" fill="#6EBD6A"/>
<path d="M33.4988 34.8069L30.4621 36.0187C29.5549 36.3797 28.769 36.9912 28.1961 37.7818V35.354C28.1932 34.5181 28.4425 33.7008 28.9112 33.0088C29.38 32.3167 30.0466 31.7821 30.8239 31.4747L33.8603 30.2629C33.9808 30.2147 34.0772 30.1206 34.1284 30.0013C34.1795 29.882 34.1812 29.7473 34.133 29.6268C34.0848 29.5062 33.9907 29.4098 33.8714 29.3587C33.7521 29.3075 33.6174 29.3059 33.4969 29.3541L30.4621 30.5645C29.5548 30.9253 28.7689 31.5368 28.1961 32.3276V29.8983C28.1932 29.0625 28.4424 28.2451 28.9112 27.5531C29.3799 26.861 30.0465 26.3264 30.8239 26.0191C30.9444 25.9709 31.0408 25.8768 31.0919 25.7575C31.1431 25.6382 31.1447 25.5035 31.0965 25.383C31.0484 25.2624 30.9543 25.166 30.835 25.1149C30.7157 25.0637 30.581 25.0621 30.4604 25.1103C29.5531 25.4711 28.7671 26.0826 28.1942 26.8734V21.3968C28.1942 21.3325 28.1815 21.2689 28.1569 21.2096C28.1323 21.1502 28.0963 21.0963 28.0509 21.0508C28.0054 21.0054 27.9515 20.9694 27.8922 20.9448C27.8328 20.9202 27.7692 20.9076 27.705 20.9076C27.6407 20.9076 27.5771 20.9202 27.5177 20.9448C27.4584 20.9694 27.4045 21.0054 27.359 21.0508C27.3136 21.0963 27.2776 21.1502 27.253 21.2096C27.2284 21.2689 27.2157 21.3325 27.2157 21.3968V26.8734C26.6431 26.0825 25.8571 25.471 24.9497 25.1103C24.8292 25.0621 24.6945 25.0637 24.5752 25.1149C24.4559 25.166 24.3618 25.2624 24.3136 25.383C24.2654 25.5035 24.2671 25.6382 24.3182 25.7575C24.3694 25.8768 24.4658 25.9709 24.5863 26.0191C25.3636 26.3264 26.0302 26.8611 26.499 27.5531C26.9678 28.2451 27.217 29.0625 27.2141 29.8983V32.3276C26.6414 31.5367 25.8554 30.9252 24.9481 30.5645L21.9153 29.3527C21.7947 29.3045 21.66 29.3061 21.5407 29.3573C21.4214 29.4084 21.3273 29.5048 21.2792 29.6254C21.231 29.7459 21.2326 29.8806 21.2838 29.9999C21.3349 30.1192 21.4313 30.2133 21.5519 30.2615L24.5891 31.4733C25.3668 31.7807 26.0337 32.3154 26.5026 33.0078C26.9716 33.7001 27.2208 34.5178 27.2177 35.354V37.7832C26.6449 36.9925 25.859 36.381 24.9517 36.0201L21.9153 34.8069C21.8556 34.783 21.7918 34.7712 21.7275 34.7719C21.6633 34.7727 21.5998 34.7862 21.5407 34.8115C21.4817 34.8368 21.4282 34.8735 21.3833 34.9195C21.3384 34.9655 21.303 35.0199 21.2792 35.0796C21.2553 35.1393 21.2434 35.2031 21.2442 35.2673C21.245 35.3316 21.2584 35.3951 21.2838 35.4541C21.3091 35.5132 21.3458 35.5667 21.3918 35.6116C21.4378 35.6565 21.4922 35.6918 21.5519 35.7157L24.5891 36.9275C25.3664 37.2349 26.033 37.7696 26.5017 38.4616C26.9705 39.1536 27.2197 39.9709 27.2169 40.8068V43.763C27.2169 43.8928 27.2684 44.0172 27.3601 44.1089C27.4519 44.2007 27.5763 44.2522 27.7061 44.2522C27.8358 44.2522 27.9602 44.2007 28.052 44.1089C28.1437 44.0172 28.1953 43.8928 28.1953 43.763V40.8068C28.1924 39.9709 28.4416 39.1536 28.9104 38.4616C29.3792 37.7696 30.0457 37.2349 30.823 36.9275L33.8594 35.7157C33.9191 35.6918 33.9735 35.6565 34.0195 35.6116C34.0655 35.5667 34.1022 35.5132 34.1275 35.4541C34.1529 35.3951 34.1663 35.3316 34.1671 35.2673C34.1679 35.2031 34.156 35.1393 34.1321 35.0796C34.1083 35.0199 34.0729 34.9655 34.028 34.9195C33.9831 34.8735 33.9296 34.8368 33.8706 34.8115C33.8115 34.7862 33.748 34.7727 33.6838 34.7719C33.6195 34.7712 33.5557 34.783 33.496 34.8069H33.4988Z" fill="#009959"/>
<path d="M47.9564 29.2951C47.8646 29.2034 47.7402 29.1519 47.6105 29.1519C47.4808 29.1519 47.3563 29.2034 47.2645 29.2951L43.392 33.1679C43.5461 32.2036 43.4228 31.2154 43.0364 30.3185C42.9852 30.1992 42.8887 30.1052 42.7682 30.0571C42.6477 30.009 42.513 30.0107 42.3937 30.0619C42.2745 30.1131 42.1804 30.2095 42.1323 30.3301C42.0842 30.4506 42.0859 30.5853 42.1371 30.7045C42.4697 31.4716 42.5632 32.3211 42.4055 33.1421C42.2477 33.9632 41.8461 34.7175 41.2529 35.3067L39.6128 36.9474C39.5674 36.9928 39.5314 37.0468 39.5069 37.1062C39.4823 37.1656 39.4697 37.2292 39.4698 37.2934C39.4698 37.3577 39.4825 37.4213 39.5072 37.4806C39.5318 37.54 39.5679 37.5939 39.6134 37.6393C39.6588 37.6846 39.7128 37.7206 39.7722 37.7452C39.8315 37.7697 39.8952 37.7823 39.9594 37.7823C40.0237 37.7822 40.0873 37.7695 40.1466 37.7449C40.2059 37.7202 40.2598 37.6842 40.3052 37.6387L41.9467 35.9969C42.536 35.4046 43.29 35.0035 44.1106 34.8461C44.9311 34.6887 45.7801 34.7822 46.5467 35.1144C46.6058 35.14 46.6693 35.1538 46.7337 35.1548C46.7981 35.1558 46.8621 35.1441 46.9219 35.1203C46.9818 35.0966 47.0364 35.0612 47.0825 35.0163C47.1287 34.9714 47.1655 34.9178 47.1909 34.8587C47.2164 34.7995 47.2298 34.7359 47.2306 34.6715C47.2314 34.6071 47.2194 34.5432 47.1954 34.4834C47.1714 34.4236 47.1359 34.3692 47.0908 34.3232C47.0457 34.2772 46.992 34.2406 46.9327 34.2154C46.0361 33.8289 45.048 33.7055 44.0839 33.8598L47.9564 29.9867C48.048 29.8949 48.0995 29.7705 48.0995 29.6409C48.0995 29.5112 48.048 29.3868 47.9564 29.2951Z" fill="#6EBD6A"/>
</svg>
